<svg width="64" height="64" viewBox="0 0 64 64" fill="none" xmlns="http://www.w3.org/2000/svg">
  <rect width="64" height="64" rx="14" fill="#FBFBFC"/>
  <ellipse cx="31.5" cy="53" rx="16" ry="3.5" fill="rgba(10,17,15,0.16)"/>
  <path
    d="M11 50C14 38 19 26 24 26C30 26 30 44 35 46C40 48 44 39 51 40C55 41 58 44 60 47"
    stroke="#1B88E8"
    stroke-width="5"
    stroke-linecap="round"
    stroke-linejoin="round"
  />
  <path
    d="M10 52C13 41 19 21 25 21C33 21 31 42 37 44C43 46 45 33 54 34C58 35 61 37 63 40"
    stroke="#FF2533"
    stroke-width="5.5"
    stroke-linecap="round"
    stroke-linejoin="round"
  />
  <ellipse cx="25.5" cy="12.5" rx="6.5" ry="4.2" transform="rotate(-30 25.5 12.5)" fill="#FF2533"/>
</svg>
